<?xml version="1.0" encoding="UTF-8"?>
<svg id="Vektor" xmlns="http://www.w3.org/2000/svg" viewBox="0 0 293.27 226.96">
  <defs>
    <style>
      .cls-1 {
        fill: #000;
      }

      .cls-1, .cls-2, .cls-3 {
        stroke-width: 0px;
      }

      .cls-2 {
        fill: #fff;
      }

      .cls-3 {
        fill: #e24859;
      }
    </style>
  </defs>
  <g id="first_row" data-name="first row">
    <rect id="bg" class="cls-3" x="1.27" width="292" height="76"/>
    <g>
      <path class="cls-2" d="M48.23,54.4l-2.17-7.14h-10.93l-2.17,7.14h-6.85l10.58-30.11h7.77l10.62,30.11h-6.85ZM44.54,41.94c-2.01-6.47-3.14-10.12-3.39-10.97s-.43-1.52-.54-2.01c-.45,1.75-1.74,6.08-3.88,12.98h7.81Z"/>
      <path class="cls-2" d="M87.46,24.42v19.4c0,2.21-.5,4.16-1.49,5.82s-2.42,2.95-4.3,3.83-4.09,1.33-6.64,1.33c-3.86,0-6.85-.99-8.98-2.96s-3.2-4.68-3.2-8.11v-19.32h6.34v18.35c0,2.31.46,4.01,1.39,5.09s2.47,1.62,4.61,1.62,3.58-.54,4.52-1.63,1.41-2.79,1.41-5.12v-18.31h6.34Z"/>
      <path class="cls-2" d="M116.7,46.08c0,2.71-.97,4.84-2.92,6.4s-4.66,2.34-8.13,2.34c-3.2,0-6.03-.6-8.49-1.8v-5.91c2.02.9,3.74,1.54,5.14,1.91s2.68.55,3.84.55c1.39,0,2.46-.27,3.21-.8s1.12-1.33,1.12-2.38c0-.59-.16-1.11-.49-1.57s-.81-.9-1.45-1.32-1.93-1.1-3.89-2.03c-1.83-.86-3.21-1.69-4.12-2.48s-1.65-1.72-2.19-2.77-.82-2.28-.82-3.69c0-2.65.9-4.74,2.7-6.25s4.28-2.28,7.45-2.28c1.56,0,3.05.18,4.46.55s2.89.89,4.44,1.56l-2.05,4.94c-1.6-.66-2.92-1.11-3.97-1.37s-2.08-.39-3.09-.39c-1.2,0-2.13.28-2.77.84s-.96,1.29-.96,2.19c0,.56.13,1.05.39,1.47s.67.82,1.24,1.21,1.91,1.09,4.03,2.1c2.8,1.34,4.72,2.68,5.76,4.03s1.56,3,1.56,4.95Z"/>
      <path class="cls-2" d="M137.9,54.4h-6.36v-24.69h-8.14v-5.29h22.64v5.29h-8.14v24.69Z"/>
      <path class="cls-2" d="M161.21,42.9v11.5h-6.36v-29.98h8.74c4.07,0,7.09.74,9.04,2.23s2.93,3.74,2.93,6.76c0,1.76-.49,3.33-1.46,4.71s-2.34,2.45-4.12,3.23c4.51,6.74,7.45,11.09,8.82,13.06h-7.05l-7.16-11.5h-3.38ZM161.21,37.73h2.05c2.01,0,3.49-.33,4.45-1s1.44-1.72,1.44-3.16-.49-2.43-1.47-3.04c-.98-.6-2.49-.9-4.54-.9h-1.93v8.1Z"/>
      <path class="cls-2" d="M186.78,54.4v-29.98h6.36v29.98h-6.36Z"/>
      <path class="cls-2" d="M223.24,54.4l-2.17-7.14h-10.93l-2.17,7.14h-6.85l10.58-30.11h7.77l10.62,30.11h-6.85ZM219.55,41.94c-2.01-6.47-3.14-10.12-3.39-10.97-.25-.85-.43-1.52-.54-2.01-.45,1.75-1.74,6.08-3.88,12.98h7.81Z"/>
      <path class="cls-2" d="M264.66,54.4h-8.08l-13.04-22.68h-.18c.26,4.01.39,6.86.39,8.57v14.11h-5.68v-29.98h8.02l13.02,22.46h.14c-.21-3.9-.31-6.65-.31-8.26v-14.19h5.72v29.98Z"/>
    </g>
  </g>
  <g id="middle_row" data-name="middle row">
    <g>
      <path class="cls-1" d="M101.53,137.07l-9.69,9.13-21.64-26.48v13.91h-12.15v-50.02h12.15v9.41l7.02-9.41h1.05l18.47,24.3-11.31,9.13,16.09,20.02ZM81.86,109.19l-5.62-7.16-5.69,7.16h11.31Z"/>
      <path class="cls-1" d="M181.27,96.12l29.01,40.6-9.83,9.48-35.05-50.65,9.83-11.94h30v12.5h-23.95Z"/>
      <path class="cls-1" d="M230.16,97.81l15.59-15.38,8.29,9.06-12.71,11.66,23.67,33.58-9.76,9.55-25.08-38.07v25.43h-12.15v-50.02h12.15v14.19Z"/>
    </g>
  </g>
  <g id="third_row" data-name="third row">
    <rect id="bottom" class="cls-3" x="1" y="150.96" width="292" height="76"/>
    <g>
      <path class="cls-2" d="M51.63,203.06h-6.25v-29.98h17.19v5.21h-10.93v7.73h10.17v5.19h-10.17v11.85Z"/>
      <path class="cls-2" d="M89.89,203.06h-17.27v-29.98h17.27v5.21h-10.91v6.58h10.15v5.21h-10.15v7.73h10.91v5.25Z"/>
      <path class="cls-2" d="M118.05,194.73c0,2.71-.97,4.84-2.92,6.4s-4.66,2.34-8.13,2.34c-3.2,0-6.03-.6-8.49-1.8v-5.91c2.02.9,3.74,1.54,5.14,1.91s2.68.55,3.85.55c1.39,0,2.46-.27,3.21-.8s1.12-1.33,1.12-2.38c0-.59-.16-1.11-.49-1.57s-.81-.9-1.45-1.32-1.93-1.1-3.89-2.03c-1.83-.86-3.21-1.69-4.12-2.48s-1.65-1.72-2.19-2.77-.82-2.28-.82-3.69c0-2.65.9-4.74,2.7-6.25s4.28-2.28,7.45-2.28c1.56,0,3.05.18,4.46.55s2.9.89,4.44,1.56l-2.05,4.94c-1.6-.66-2.92-1.11-3.97-1.37s-2.07-.39-3.09-.39c-1.2,0-2.13.28-2.77.84s-.96,1.29-.96,2.19c0,.56.13,1.05.39,1.47s.67.82,1.24,1.21,1.91,1.09,4.03,2.1c2.8,1.34,4.72,2.68,5.76,4.03s1.56,3,1.56,4.95Z"/>
      <path class="cls-2" d="M139.25,203.06h-6.36v-24.69h-8.14v-5.29h22.64v5.29h-8.14v24.69Z"/>
      <path class="cls-2" d="M156.2,203.06v-29.98h6.36v29.98h-6.36Z"/>
      <path class="cls-2" d="M191.41,173.08h6.42l-10.19,29.98h-6.93l-10.17-29.98h6.42l5.64,17.84c.31,1.05.64,2.28.97,3.68.33,1.4.54,2.38.62,2.92.15-1.26.66-3.46,1.54-6.6l5.68-17.84Z"/>
      <path class="cls-2" d="M224.16,203.06l-2.17-7.14h-10.93l-2.17,7.14h-6.85l10.58-30.11h7.77l10.62,30.11h-6.85ZM220.47,190.59c-2.01-6.47-3.14-10.12-3.39-10.97-.25-.85-.43-1.52-.54-2.01-.45,1.75-1.74,6.08-3.88,12.98h7.81Z"/>
      <path class="cls-2" d="M238.98,203.06v-29.98h6.36v24.73h12.16v5.25h-18.52Z"/>
    </g>
  </g>
  <g id="guitar_with_o" data-name="guitar with o">
    <g id="guitar">
      <path class="cls-1" d="M128.74,18.92s-1.57.17.17,8.29c1.74,8.11-1.4,14.39-1.4,14.39,3.05,1.83,3.93,6.37,3.93,6.37h0l.09,29.27c-.62,3.1-2.62,9.68-7.48,2.42-6.16-9.2-5.52-10.63-5.52-10.63,0,0-6.59,9.91-5.95,21.09,0,0,20.76,6.49,1.39,33.22-19.37,26.73,13.34,34.11,13.34,34.11,0,0,7.58-23.96,37.09-17.66,0,0,.03-3.33-7.72-17.01-7.75-13.68-10.6-27.4-3.22-39.27,7.38-11.87,11.15-13.95.38-15.95,0,0,2.5,5.32-6.91,14.83-5.39,5.44-7.91,2.38-9.09-1.23l-.1-32.99c.26-4.45,3.99-7.26,3.99-7.26,0,0-4.19-5.67-2.18-14.22,2.01-8.55.44-9.68.44-9.68-8.46,8.46-11.25,1.92-11.25,1.92Z"/>
    </g>
    <path id="o" class="cls-2" d="M154.11,125.45l-6.74,8.18h-23.54l-6.74-8.18,17.96-26.09h1.16l17.91,26.09ZM127.59,125.06h16.03l-8.04-11.46-7.99,11.46Z"/>
  </g>
</svg>